<svg width="22" height="28" viewBox="0 0 22 28" fill="none" xmlns="http://www.w3.org/2000/svg">
<path d="M11 27.3333C9.52725 27.3333 8.33334 26.1394 8.33334 24.6667H13.6667C13.6667 26.1394 12.4728 27.3333 11 27.3333ZM21.6667 23.3333H0.333344V20.6667L3.00001 19.3333V12C3.00001 7.384 4.89468 4.39067 8.33334 3.57333V0.666666H13.6667V3.57333C17.1053 4.38933 19 7.38133 19 12V19.3333L21.6667 20.6667V23.3333ZM11 5.66667C9.3729 5.5616 7.80372 6.2897 6.83334 7.6C6.0034 8.91274 5.59619 10.4485 5.66668 12V20.6667H16.3333V12C16.4037 10.4485 15.9965 8.91278 15.1667 7.6C14.1963 6.2897 12.6271 5.5616 11 5.66667Z" fill="#43425D"/>
</svg>
