<svg width="28" height="28" viewBox="0 0 28 28" fill="none" xmlns="http://www.w3.org/2000/svg">
<path d="M14 27.3333C6.63619 27.3333 0.666656 21.3638 0.666656 14C0.666656 6.6362 6.63619 0.666666 14 0.666666C21.3638 0.666666 27.3333 6.6362 27.3333 14C27.3252 21.3604 21.3604 27.3253 14 27.3333ZM14 3.33333C8.10895 3.33333 3.33332 8.10896 3.33332 14C3.33332 19.891 8.10895 24.6667 14 24.6667C19.891 24.6667 24.6667 19.891 24.6667 14C24.66 8.1117 19.8883 3.33995 14 3.33333ZM20.6667 15.3333H12.6667V7.33333H15.3333V12.6667H20.6667V15.3333Z" fill="#43425D"/>
</svg>
