<svg width="16" height="16" viewBox="0 0 16 16" fill="none" xmlns="http://www.w3.org/2000/svg">
<path d="M13.3 5.2L14.4 3.1L13 1.7L10.9 2.8C10.5577 2.60726 10.1861 2.47212 9.8 2.4L9 0H7L6.2 2.3C5.85081 2.38964 5.51468 2.52409 5.2 2.7L3.1 1.6L1.6 3.1L2.7 5.2C2.52409 5.51468 2.38964 5.85081 2.3 6.2L0 7V9L2.3 9.8C2.4 10.2 2.6 10.5 2.7 10.9L1.6 13L3 14.4L5.1 13.3C5.44226 13.4927 5.81388 13.6279 6.2 13.7L7 16H9L9.8 13.7C10.2 13.6 10.5 13.4 10.9 13.3L13 14.4L14.4 13L13.3 10.9C13.4927 10.5577 13.6279 10.1861 13.7 9.8L16 9V7L13.7 6.2C13.6104 5.85081 13.4759 5.51468 13.3 5.2ZM8 11C7.60402 11.0073 7.21063 10.9347 6.84334 10.7866C6.47605 10.6384 6.14241 10.4177 5.86236 10.1376C5.58231 9.85759 5.3616 9.52395 5.21343 9.15666C5.06526 8.78938 4.99267 8.39598 5 8C4.99267 7.60402 5.06526 7.21063 5.21343 6.84334C5.3616 6.47605 5.58231 6.14241 5.86236 5.86236C6.14241 5.58231 6.47605 5.3616 6.84334 5.21343C7.21063 5.06526 7.60402 4.99267 8 5C8.39598 4.99267 8.78938 5.06526 9.15666 5.21343C9.52395 5.3616 9.85759 5.58231 10.1376 5.86236C10.4177 6.14241 10.6384 6.47605 10.7866 6.84334C10.9347 7.21063 11.0073 7.60402 11 8C11.0073 8.39598 10.9347 8.78938 10.7866 9.15666C10.6384 9.52395 10.4177 9.85759 10.1376 10.1376C9.85759 10.4177 9.52395 10.6384 9.15666 10.7866C8.78938 10.9347 8.39598 11.0073 8 11Z" fill="white"/>
</svg>
