<svg width="18" height="16" viewBox="0 0 18 16" fill="none" xmlns="http://www.w3.org/2000/svg">
<path d="M4.90851 0.487635C4.86933 0.448836 4.82277 0.418053 4.77152 0.397049C4.72027 0.376046 4.66532 0.365234 4.60983 0.365234C4.55434 0.365234 4.49939 0.376046 4.44814 0.397049C4.39689 0.418053 4.35033 0.448836 4.31115 0.487635L2.07242 2.68633L1.2748 1.91862C1.23562 1.87982 1.18906 1.84904 1.13781 1.82804C1.08655 1.80703 1.03161 1.79622 0.976119 1.79622C0.920628 1.79622 0.865683 1.80703 0.81443 1.82804C0.763177 1.84904 0.716623 1.87982 0.677434 1.91862L0.12394 2.46413C0.084653 2.50283 0.0534828 2.54881 0.0322151 2.59942C0.0109474 2.65004 0 2.7043 0 2.75911C0 2.81391 0.0109474 2.86817 0.0322151 2.91879C0.0534828 2.9694 0.084653 3.01538 0.12394 3.05408L1.80017 4.69949C1.88375 4.77763 1.99446 4.82118 2.10954 4.82118C2.22463 4.82118 2.33534 4.77763 2.41892 4.69949L2.96679 4.15732L5.50251 1.65087C5.58103 1.57228 5.62506 1.46631 5.62506 1.35589C5.62506 1.24548 5.58103 1.13951 5.50251 1.06092L4.90851 0.487635ZM4.90851 6.01493C4.86933 5.97614 4.82277 5.94535 4.77152 5.92435C4.72027 5.90335 4.66532 5.89253 4.60983 5.89253C4.55434 5.89253 4.49939 5.90335 4.44814 5.92435C4.39689 5.94535 4.35033 5.97614 4.31115 6.01493L2.07242 8.22697L1.2748 7.45925C1.23562 7.42045 1.18906 7.38967 1.13781 7.36867C1.08655 7.34766 1.03161 7.33685 0.976119 7.33685C0.920628 7.33685 0.865683 7.34766 0.81443 7.36867C0.763177 7.38967 0.716623 7.42045 0.677434 7.45925L0.125065 8.00365C0.085778 8.04235 0.0546078 8.08833 0.0333401 8.13894C0.0120724 8.18956 0.00112499 8.24382 0.00112499 8.29863C0.00112499 8.35343 0.0120724 8.40769 0.0333401 8.45831C0.0546078 8.50892 0.085778 8.5549 0.125065 8.5936L1.79342 10.2423C1.877 10.3205 1.98771 10.364 2.10279 10.364C2.21788 10.364 2.32859 10.3205 2.41217 10.2423L2.96453 9.69795L5.50251 7.1915C5.58083 7.11347 5.62477 7.00806 5.62477 6.89819C5.62477 6.78833 5.58083 6.68291 5.50251 6.60488L4.90851 6.01493ZM2.25017 12.0322C1.80262 12.0322 1.3734 12.2078 1.05694 12.5203C0.740473 12.8328 0.562686 13.2567 0.562686 13.6987C0.562686 14.1407 0.740473 14.5646 1.05694 14.8771C1.3734 15.1897 1.80262 15.3652 2.25017 15.3652C2.69772 15.3652 3.12693 15.1897 3.4434 14.8771C3.75986 14.5646 3.93765 14.1407 3.93765 13.6987C3.93765 13.2567 3.75986 12.8328 3.4434 12.5203C3.12693 12.2078 2.69772 12.0322 2.25017 12.0322ZM17.4375 12.5877H7.31261C7.16343 12.5877 7.02036 12.6462 6.91487 12.7504C6.80938 12.8546 6.75012 12.9959 6.75012 13.1432V14.2542C6.75012 14.4015 6.80938 14.5428 6.91487 14.647C7.02036 14.7512 7.16343 14.8097 7.31261 14.8097H17.4375C17.5867 14.8097 17.7298 14.7512 17.8353 14.647C17.9407 14.5428 18 14.4015 18 14.2542V13.1432C18 12.9959 17.9407 12.8546 17.8353 12.7504C17.7298 12.6462 17.5867 12.5877 17.4375 12.5877ZM17.4375 1.47755H7.31261C7.16343 1.47755 7.02036 1.53608 6.91487 1.64025C6.80938 1.74443 6.75012 1.88573 6.75012 2.03306V3.14407C6.75012 3.2914 6.80938 3.4327 6.91487 3.53687C7.02036 3.64105 7.16343 3.69958 7.31261 3.69958H17.4375C17.5867 3.69958 17.7298 3.64105 17.8353 3.53687C17.9407 3.4327 18 3.2914 18 3.14407V2.03306C18 1.88573 17.9407 1.74443 17.8353 1.64025C17.7298 1.53608 17.5867 1.47755 17.4375 1.47755ZM17.4375 7.03262H7.31261C7.16343 7.03262 7.02036 7.09115 6.91487 7.19533C6.80938 7.29951 6.75012 7.4408 6.75012 7.58813V8.69915C6.75012 8.84648 6.80938 8.98777 6.91487 9.09195C7.02036 9.19613 7.16343 9.25465 7.31261 9.25465H17.4375C17.5867 9.25465 17.7298 9.19613 17.8353 9.09195C17.9407 8.98777 18 8.84648 18 8.69915V7.58813C18 7.4408 17.9407 7.29951 17.8353 7.19533C17.7298 7.09115 17.5867 7.03262 17.4375 7.03262Z" fill="white"/>
</svg>
