<svg width="18" height="17" viewBox="0 0 18 17" fill="none" xmlns="http://www.w3.org/2000/svg">
<path d="M15.677 16.607L9.962 10.891C7.41967 12.6985 3.91644 12.2563 1.90288 9.87393C-0.110688 7.49151 0.0371623 3.96359 2.243 1.758C4.44826 -0.448553 7.97653 -0.597043 10.3594 1.41642C12.7423 3.42987 13.1846 6.93345 11.377 9.476L17.092 15.192L15.678 16.606L15.677 16.607ZM6.485 1.99999C4.58871 1.99956 2.95269 3.33068 2.56748 5.18744C2.18226 7.0442 3.15371 8.91627 4.89368 9.67024C6.63365 10.4242 8.6639 9.85283 9.75525 8.30205C10.8466 6.75127 10.6991 4.64732 9.402 3.264L10.007 3.864L9.325 3.184L9.313 3.172C8.56479 2.41918 7.5464 1.99713 6.485 1.99999Z" fill="#C2C6D9"/>
</svg>
