<svg width="11" height="8" viewBox="0 0 11 8" fill="none" xmlns="http://www.w3.org/2000/svg">
<path d="M6.07761 7.00661L10.5177 2.17804C10.6657 2.01853 10.7493 1.80173 10.75 1.57535C10.7507 1.34897 10.6686 1.13154 10.5217 0.970895C10.3747 0.810253 10.175 0.719555 9.96647 0.718755C9.75794 0.717955 9.55764 0.807118 9.40966 0.96663L5.48035 5.1895L1.59034 0.966629C1.44236 0.807118 1.24207 0.717955 1.03353 0.718755C0.824986 0.719555 0.62528 0.810252 0.478342 0.970895C0.331404 1.13154 0.249269 1.34897 0.250006 1.57535C0.250742 1.80173 0.334291 2.01853 0.482272 2.17804L4.92239 7.00661C4.99598 7.0932 5.0853 7.16231 5.18471 7.20958C5.28412 7.25685 5.39147 7.28125 5.5 7.28125C5.60853 7.28125 5.71588 7.25685 5.81529 7.20958C5.9147 7.16231 6.00402 7.0932 6.07761 7.00661Z" fill="white"/>
</svg>
