<svg width="8" height="15" viewBox="0 0 8 15" fill="none" xmlns="http://www.w3.org/2000/svg">
<path d="M1.17001 0.00195166C1.3194 0.00144337 1.46701 0.0344157 1.60199 0.0984445C1.73697 0.162473 1.85589 0.255932 1.95001 0.371953L6.78 6.37195C6.92709 6.55089 7.00749 6.77533 7.00749 7.00695C7.00749 7.23858 6.92709 7.46302 6.78 7.64195L1.78 13.642C1.61027 13.8462 1.36635 13.9746 1.10193 13.999C0.837502 14.0234 0.574221 13.9417 0.370004 13.772C0.165788 13.6022 0.0373636 13.3583 0.0129839 13.0939C-0.0113958 12.8294 0.0702654 12.5662 0.240004 12.362L4.71 7.00195L0.390006 1.64195C0.267723 1.49517 0.190046 1.31643 0.166166 1.12688C0.142286 0.937329 0.173203 0.744904 0.255259 0.572377C0.337315 0.399849 0.467075 0.254438 0.629185 0.153347C0.791296 0.052257 0.978972 -0.000279954 1.17001 0.00195166Z" fill="#A6A5B7"/>
</svg>
