<svg width="7" height="12" viewBox="0 0 7 12" fill="none" xmlns="http://www.w3.org/2000/svg">
<path d="M6.50661 5.42239L1.67804 0.982271C1.51853 0.83429 1.30173 0.750742 1.07535 0.750005C0.848967 0.749268 0.631538 0.831404 0.470895 0.978342C0.310253 1.12528 0.219555 1.32499 0.218755 1.53353C0.217955 1.74206 0.307118 1.94236 0.46663 2.09034L4.6895 6.01965L0.46663 9.90966C0.307118 10.0576 0.217955 10.2579 0.218755 10.4665C0.219555 10.675 0.310253 10.8747 0.470895 11.0217C0.631538 11.1686 0.848967 11.2507 1.07535 11.25C1.30173 11.2493 1.51853 11.1657 1.67804 11.0177L6.50661 6.57761C6.5932 6.50402 6.66231 6.4147 6.70958 6.31529C6.75685 6.21588 6.78125 6.10853 6.78125 6C6.78125 5.89147 6.75685 5.78412 6.70958 5.68471C6.66231 5.5853 6.5932 5.49598 6.50661 5.42239Z" fill="white"/>
</svg>
