<svg width="18" height="19" viewBox="0 0 18 19" fill="none" xmlns="http://www.w3.org/2000/svg">
<path d="M13.1803 11.1565C14.0818 9.67199 14.4082 7.90867 14.0978 6.19986C13.7873 4.49106 12.8615 2.95514 11.4953 1.88241C10.129 0.80967 8.41709 0.274431 6.68296 0.377848C4.94883 0.481266 3.31266 1.21617 2.08369 2.44368C0.854723 3.67118 0.118091 5.30624 0.013018 7.03983C-0.0920547 8.77342 0.441712 10.4854 1.51344 11.8523C2.58516 13.2192 4.1206 14.1462 5.82955 14.4582C7.5385 14.7702 9.30257 14.4456 10.7884 13.5456L15.6092 18.3652L18 15.9739L13.1803 11.1565ZM7.12189 11.8751C6.25594 11.8739 5.40975 11.6162 4.69028 11.1344C3.9708 10.6526 3.41034 9.96845 3.07973 9.1683C2.74911 8.36815 2.66318 7.48797 2.8328 6.63901C3.00242 5.79004 3.41997 5.01041 4.03268 4.39864C4.6454 3.78686 5.42577 3.37041 6.27516 3.20193C7.12456 3.03344 8.00485 3.12047 8.80478 3.45203C9.60471 3.78359 10.2884 4.34478 10.7693 5.06469C11.2503 5.7846 11.507 6.6309 11.507 7.49663C11.5041 8.65792 11.0409 9.77072 10.219 10.5913C9.39715 11.412 8.28348 11.8736 7.12189 11.8751Z" fill="white"/>
</svg>
