<svg width="15" height="16" viewBox="0 0 15 16" fill="none" xmlns="http://www.w3.org/2000/svg">
<path d="M0.246094 16C0.250842 14.4102 0.884508 12.8868 2.0087 11.7626C3.13289 10.6384 4.65626 10.0047 6.24609 10H8.24609C9.83593 10.0047 11.3593 10.6384 12.4835 11.7626C13.6077 12.8868 14.2413 14.4102 14.2461 16H0.246094ZM2.84609 14H11.7461C11.3894 13.3889 10.8782 12.8824 10.2639 12.5313C9.64955 12.1803 8.95366 11.997 8.24609 12H6.34609C5.63857 11.9972 4.94275 12.1806 4.32844 12.5316C3.71413 12.8826 3.20292 13.389 2.84609 14ZM3.24609 5V4C3.24609 2.93913 3.66752 1.92172 4.41767 1.17157C5.16781 0.421427 6.18523 0 7.24609 0C8.30696 0 9.32438 0.421427 10.0745 1.17157C10.8247 1.92172 11.2461 2.93913 11.2461 4V5C11.2461 6.06087 10.8247 7.07828 10.0745 7.82843C9.32438 8.57857 8.30696 9 7.24609 9C6.18523 9 5.16781 8.57857 4.41767 7.82843C3.66752 7.07828 3.24609 6.06087 3.24609 5ZM5.24609 4V5C5.24609 5.53043 5.45681 6.03914 5.83188 6.41421C6.20695 6.78929 6.71566 7 7.24609 7C7.77653 7 8.28523 6.78929 8.66031 6.41421C9.03538 6.03914 9.24609 5.53043 9.24609 5V4C9.24609 3.46957 9.03538 2.96086 8.66031 2.58579C8.28523 2.21071 7.77653 2 7.24609 2C6.71566 2 6.20695 2.21071 5.83188 2.58579C5.45681 2.96086 5.24609 3.46957 5.24609 4Z" fill="white"/>
</svg>
