<svg width="152" height="38" viewBox="0 0 152 38" fill="none" xmlns="http://www.w3.org/2000/svg">
<path d="M35.061 31.1L27.748 24.4C32.923 12.849 36.692 9.264 50.005 0L35.061 31.1Z" fill="white"/>
<path d="M50.006 0L0 8.551C0 8.551 33.275 6.878 15.8 37.365C15.987 37.365 50.006 0 50.006 0Z" fill="white"/>
<path d="M68.117 24.51C67.3366 24.5221 66.5623 24.3719 65.843 24.069C65.1812 23.7938 64.5831 23.3853 64.086 22.869C63.597 22.3628 63.2138 21.7641 62.959 21.108C62.6904 20.4288 62.5547 19.7044 62.559 18.974C62.5558 18.2402 62.6915 17.5124 62.959 16.829C63.2121 16.1649 63.5953 15.5581 64.086 15.044C64.5827 14.5247 65.1807 14.1129 65.843 13.834C66.5681 13.5306 67.3481 13.3805 68.134 13.393C68.9144 13.3829 69.6885 13.5351 70.407 13.84C71.0563 14.1245 71.6445 14.532 72.139 15.04C72.618 15.5412 72.9902 16.1346 73.233 16.784C73.4842 17.4493 73.612 18.1548 73.61 18.866C73.61 19.029 73.604 19.179 73.593 19.325C73.582 19.471 73.564 19.593 73.553 19.686H64.959C64.9896 20.1333 65.104 20.5709 65.296 20.976C65.4686 21.35 65.7113 21.6874 66.011 21.97C66.3003 22.2509 66.6421 22.4721 67.017 22.621C67.3923 22.7722 67.7934 22.8493 68.198 22.848C68.4997 22.847 68.8 22.8081 69.092 22.732C69.375 22.6611 69.647 22.5514 69.9 22.406C70.1424 22.2629 70.3636 22.0865 70.557 21.882C70.7444 21.6828 70.896 21.4528 71.005 21.202L72.935 21.76C72.5452 22.5934 71.9051 23.2845 71.104 23.737C70.197 24.2614 69.1635 24.5268 68.116 24.504L68.117 24.51ZM71.378 18.133C71.3398 17.6995 71.2258 17.276 71.041 16.882C70.8666 16.5157 70.6258 16.1847 70.331 15.906C70.0376 15.6377 69.6968 15.4264 69.326 15.283C68.9414 15.1313 68.5314 15.0542 68.118 15.056C67.3065 15.0541 66.5241 15.3575 65.926 15.906C65.6289 16.1805 65.3908 16.5126 65.226 16.882C65.0437 17.2766 64.9317 17.6999 64.895 18.133H71.378Z" fill="white"/>
<path d="M76.364 19.736V17.929H83.608V19.736H76.364ZM95.538 18.867C95.5427 18.4317 95.4565 18.0001 95.285 17.6C95.1198 17.2156 94.8883 16.8632 94.601 16.559C94.3056 16.2634 93.9572 16.0259 93.574 15.859C93.1738 15.6888 92.7429 15.6027 92.308 15.606C91.8727 15.6012 91.4411 15.6874 91.041 15.859C90.656 16.0225 90.3069 16.2604 90.014 16.559C89.7223 16.8611 89.4882 17.2139 89.323 17.6C89.1557 18.0013 89.0696 18.4317 89.0696 18.8665C89.0696 19.3013 89.1557 19.7317 89.323 20.133C89.4845 20.5211 89.7191 20.8745 90.014 21.174C90.3066 21.473 90.6558 21.7109 91.041 21.874C91.4411 22.0456 91.8727 22.1318 92.308 22.127C92.7429 22.1303 93.1738 22.0442 93.574 21.874C93.9574 21.7075 94.3059 21.47 94.601 21.174C94.8915 20.8724 95.1234 20.5194 95.285 20.133C95.4571 19.732 95.5433 19.2994 95.538 18.863V18.867ZM97.738 18.867C97.7446 19.5955 97.602 20.3177 97.319 20.989C97.0476 21.6347 96.6549 22.2223 96.162 22.72C95.6647 23.2171 95.0772 23.6149 94.431 23.892C93.7624 24.1857 93.0393 24.335 92.309 24.33C91.7309 24.3286 91.1568 24.2337 90.609 24.049C90.0606 23.8659 89.5433 23.6002 89.075 23.261V26.088H86.875V19.063C86.8703 18.3112 87.006 17.5651 87.275 16.863C87.5243 16.1924 87.9054 15.5786 88.3957 15.0577C88.886 14.5368 89.4757 14.1193 90.13 13.83C90.8186 13.5297 91.5628 13.3781 92.314 13.385C93.0435 13.3805 93.766 13.5272 94.436 13.816C95.0828 14.0974 95.6702 14.4992 96.167 15C96.6588 15.5065 97.0513 16.1008 97.324 16.752C97.6007 17.4211 97.7409 18.1389 97.736 18.863L97.738 18.867ZM109.427 18.867C109.432 18.4317 109.346 18.0001 109.174 17.6C109.009 17.2193 108.777 16.8715 108.489 16.573C108.191 16.2841 107.843 16.052 107.462 15.888C107.061 15.7179 106.63 15.6318 106.195 15.635C105.76 15.6304 105.328 15.7166 104.928 15.888C104.545 16.0486 104.197 16.2811 103.902 16.573C103.609 16.8688 103.375 17.2172 103.211 17.6C103.044 18.0013 102.958 18.4317 102.958 18.8665C102.958 19.3013 103.044 19.7317 103.211 20.133C103.458 20.7198 103.874 21.2202 104.405 21.5712C104.936 21.9222 105.559 22.1079 106.196 22.105H109.428L109.427 18.867ZM106.195 24.303C105.468 24.3081 104.749 24.1638 104.08 23.879C102.778 23.3189 101.74 22.2811 101.18 20.979C100.895 20.3106 100.75 19.5906 100.756 18.864C100.754 18.1425 100.898 17.4282 101.18 16.764C101.735 15.4566 102.774 14.4143 104.08 13.855C104.748 13.5695 105.468 13.4252 106.195 13.431C106.916 13.4288 107.631 13.573 108.295 13.855C109.607 14.4089 110.651 15.4525 111.205 16.764C111.484 17.4286 111.626 18.143 111.622 18.864V24.3L106.195 24.303ZM123.678 18.867C123.683 18.4316 123.597 18 123.425 17.6C123.259 17.2155 123.028 16.8631 122.74 16.559C122.445 16.2634 122.096 16.0259 121.713 15.859C121.313 15.6888 120.882 15.6027 120.447 15.606C120.012 15.6013 119.58 15.6875 119.18 15.859C118.795 16.0225 118.447 16.2604 118.154 16.559C117.862 16.8613 117.627 17.214 117.461 17.6C117.294 18.0013 117.208 18.4317 117.208 18.8665C117.208 19.3013 117.294 19.7317 117.461 20.133C117.624 20.521 117.859 20.8743 118.154 21.174C118.611 21.6306 119.193 21.941 119.827 22.0657C120.461 22.1903 121.117 22.1236 121.713 21.874C122.096 21.7075 122.445 21.47 122.74 21.174C123.031 20.8724 123.263 20.5194 123.425 20.133C123.597 19.732 123.682 19.2993 123.676 18.863L123.678 18.867ZM125.878 18.867C125.885 19.5954 125.743 20.3175 125.461 20.989C124.914 22.2958 123.877 23.3366 122.572 23.889C121.903 24.183 121.18 24.3322 120.45 24.327C119.87 24.326 119.294 24.2311 118.745 24.046C118.197 23.8629 117.679 23.5972 117.211 23.258V26.085H115.011V19.063C115.006 18.3112 115.142 17.5651 115.411 16.863C115.66 16.1924 116.041 15.5786 116.532 15.0577C117.022 14.5368 117.612 14.1193 118.266 13.83C118.955 13.5297 119.699 13.3781 120.45 13.385C121.18 13.3802 121.902 13.527 122.572 13.816C123.219 14.0974 123.807 14.4992 124.304 15C124.796 15.5068 125.188 16.101 125.461 16.752C125.738 17.4211 125.879 18.1388 125.874 18.863L125.878 18.867Z" fill="white"/>
<path d="M134.628 24.51C133.848 24.522 133.073 24.3718 132.354 24.069C131.693 23.7937 131.095 23.3852 130.599 22.869C130.109 22.3631 129.726 21.7644 129.471 21.108C129.202 20.4288 129.067 19.7044 129.071 18.974C129.068 18.2402 129.204 17.5123 129.471 16.829C129.724 16.1646 130.108 15.5577 130.599 15.044C131.095 14.5248 131.692 14.113 132.354 13.834C133.079 13.5306 133.859 13.3805 134.645 13.393C135.426 13.383 136.2 13.5353 136.919 13.84C137.568 14.1249 138.157 14.5324 138.652 15.04C139.131 15.5413 139.503 16.1346 139.745 16.784C139.997 17.4492 140.125 18.1548 140.123 18.866C140.123 19.029 140.117 19.179 140.105 19.325C140.093 19.471 140.076 19.593 140.065 19.686H131.471C131.502 20.1333 131.616 20.5708 131.808 20.976C131.982 21.3496 132.225 21.6869 132.524 21.97C132.813 22.2508 133.155 22.472 133.529 22.621C133.904 22.7721 134.305 22.8492 134.71 22.848C135.014 22.8474 135.316 22.8084 135.61 22.732C135.893 22.6607 136.165 22.551 136.418 22.406C136.66 22.2623 136.881 22.086 137.075 21.882C137.262 21.6828 137.413 21.4527 137.522 21.202L139.452 21.76C139.063 22.5937 138.422 23.2849 137.621 23.737C136.713 24.2647 135.678 24.5322 134.628 24.51ZM137.889 18.133C137.851 17.6994 137.737 17.2758 137.552 16.882C137.378 16.5159 137.137 16.185 136.843 15.906C136.549 15.6381 136.209 15.4269 135.838 15.283C135.453 15.1312 135.042 15.0542 134.628 15.056C134.217 15.0534 133.81 15.1305 133.428 15.283C133.061 15.4283 132.725 15.6395 132.434 15.906C132.137 16.1808 131.899 16.5128 131.734 16.882C131.551 17.2762 131.439 17.6997 131.403 18.133H137.889Z" fill="white"/>
<path d="M149.952 16.114C149.688 15.972 149.41 15.8552 149.124 15.765C148.838 15.6759 148.54 15.6317 148.241 15.634C147.817 15.6312 147.397 15.7174 147.008 15.887C146.628 16.0524 146.284 16.2902 145.995 16.587C145.702 16.8853 145.468 17.2361 145.304 17.621C145.135 18.0146 145.049 18.4387 145.051 18.867V24.303H142.88V18.867C142.878 18.1455 143.022 17.4312 143.304 16.767C143.573 16.1252 143.96 15.5402 144.447 15.043C144.936 14.5483 145.512 14.1489 146.147 13.865C146.805 13.5762 147.517 13.4293 148.236 13.434C148.824 13.4312 149.408 13.5328 149.96 13.734C150.499 13.9384 151.014 14.2027 151.494 14.522L149.952 16.114Z" fill="white"/>
</svg>
